<?xml version="1.0" encoding="UTF-8"?>
<svg version="1.1" xmlns="http://www.w3.org/2000/svg" width="2657" height="1716">
<path d="M0 0 C1.55337193 1.34072335 3.09525423 2.69488113 4.625 4.0625 C5.43066406 4.72636719 6.23632812 5.39023437 7.06640625 6.07421875 C33.6871496 28.61228159 39.64398278 59.87912367 42.8125 93 C42.89871613 93.89136658 42.98493225 94.78273315 43.07376099 95.70111084 C46.24659484 128.98036478 43.65402743 153.55919288 29 183.6875 C19.59993659 203.04271745 16.2963027 220.27168084 16.24414062 241.65161133 C16.11914993 272.23371079 2.65403027 292.74773488 -16.4375 315.625 C-37.54949612 340.9564529 -51.58765721 367.90417275 -62.75 398.8125 C-72.15477946 424.84406956 -83.92785533 448.52174331 -98.80444336 471.83837891 C-120.22601348 505.46061281 -137.30840028 539.65852782 -147.55859375 578.25 C-154.76888757 605.3756743 -163.62521036 627.05390415 -181.375 649.0625 C-182.46748047 650.42761719 -182.46748047 650.42761719 -183.58203125 651.8203125 C-191.76819563 661.93870667 -200.34862921 671.73133224 -208.875 681.5625 C-210.50763268 683.44632565 -212.14013665 685.33026259 -213.77246094 687.21435547 C-214.82685409 688.43034514 -215.88216792 689.6455372 -216.93847656 690.85986328 C-222.93306956 697.75459675 -228.76910287 704.72964271 -234.3671875 711.95117188 C-237.32390484 715.75815909 -240.3748135 719.45483499 -243.5 723.125 C-253.90447064 735.55119243 -261.99901666 749.37139375 -269.99609375 763.41015625 C-270.64497559 764.54557861 -271.29385742 765.68100098 -271.96240234 766.85083008 C-273.2462863 769.10103906 -274.52429238 771.35461551 -275.79541016 773.61206055 C-286.84357103 792.99121144 -301.40999059 809.64367244 -318.375 824.0625 C-319.4497822 824.98893005 -320.52394774 825.91607577 -321.59765625 826.84375 C-327.11000557 831.5980847 -332.64403837 836.30743794 -338.3125 840.875 C-342.00191217 843.86860198 -345.40534353 846.97115937 -348.703125 850.38671875 C-350.50070925 852.18850297 -352.38160302 853.84227256 -354.3125 855.5 C-357.12076347 857.91867779 -359.77470593 860.42149683 -362.375 863.0625 C-365.5965855 866.33452128 -368.96092145 869.35566055 -372.44140625 872.34765625 C-374.32994597 874.02254299 -376.10655648 875.76197587 -377.875 877.5625 C-380.84235323 880.57663582 -383.94845292 883.36167333 -387.15234375 886.12109375 C-389.70476883 888.35054061 -392.19387514 890.64251382 -394.6875 892.9375 C-400.08635366 897.8597652 -405.68672312 902.4809551 -411.375 907.0625 C-413.10532921 908.4777465 -414.8344781 909.89443719 -416.5625 911.3125 C-417.47128906 912.055 -418.38007812 912.7975 -419.31640625 913.5625 C-420.92678924 914.87877729 -422.53685388 916.19544981 -424.14404297 917.515625 C-432.27892871 924.19732529 -440.49038405 930.75105336 -448.87744141 937.11401367 C-453.32100387 940.48535816 -457.72687878 943.89926196 -462.11108398 947.34741211 C-500.61935638 977.58344482 -542.44111652 1001.04664417 -592.375 1003.0625 C-593.26864258 1003.10101074 -594.16228516 1003.13952148 -595.08300781 1003.17919922 C-638.97185239 1004.78957851 -673.69757598 992.71782612 -709.625 968.5 C-712.83533584 966.34804148 -716.04915656 964.20137443 -719.265625 962.05859375 C-720.03974731 961.54271194 -720.81386963 961.02683014 -721.6114502 960.49531555 C-731.59477499 953.87909562 -741.87658974 947.76378393 -752.375 942 C-753.12644287 941.58572754 -753.87788574 941.17145508 -754.65209961 940.74462891 C-756.89093086 939.51330717 -759.13261016 938.28732627 -761.375 937.0625 C-762.03000488 936.70269043 -762.68500977 936.34288086 -763.35986328 935.97216797 C-769.58904143 932.55647786 -775.83848569 929.27261038 -782.30249023 926.3215332 C-803.71301449 916.54316089 -825.50486639 904.5270387 -843.375 889.0625 C-844.13296875 888.41410156 -844.8909375 887.76570313 -845.671875 887.09765625 C-867.413882 868.02011089 -885.32329827 847.53076011 -890.375 818.0625 C-891.22787305 801.9935964 -891.13471916 785.75327645 -887.375 770.0625 C-887.17052246 769.15274414 -886.96604492 768.24298828 -886.75537109 767.30566406 C-882.35372451 748.01414633 -875.09636124 730.19545551 -867.375 712.0625 C-857.5265203 688.90245623 -848.12031318 666.77365641 -848.06640625 641.18359375 C-848.04123278 638.93945068 -848.01583496 636.69531011 -847.99023438 634.45117188 C-847.96167937 630.9852777 -847.93760596 627.51942713 -847.91870117 624.0534668 C-847.79229843 604.58050009 -846.16029416 586.74238005 -840.47238159 568.0993042 C-829.81559776 532.87938218 -829.22303529 494.86055413 -836.25 458.6875 C-836.39920898 457.91583496 -836.54841797 457.14416992 -836.70214844 456.34912109 C-838.2228477 449.39091129 -841.00752175 443.1270352 -845.75 437.75 C-846.29398438 437.11449219 -846.83796875 436.47898437 -847.3984375 435.82421875 C-852.02307721 431.70225727 -856.2736673 430.64735965 -862.375 430.6875 C-863.550625 430.67976563 -864.72625 430.67203125 -865.9375 430.6640625 C-872.75986653 431.4548368 -877.8786458 435.21237105 -882.33203125 440.296875 C-887.19202952 446.8860095 -890.82851542 453.68321297 -894.3828125 461.015625 C-900.05221147 472.66416572 -907.10404867 483.37544327 -914.375 494.0625 C-916.06828071 496.5586461 -917.75428695 499.05955755 -919.4375 501.5625 C-920.17097656 502.6453125 -920.90445313 503.728125 -921.66015625 504.84375 C-928.63141501 515.50151901 -934.81706253 526.55195825 -940.69009399 537.84204102 C-952.19890312 559.91658044 -965.04138717 579.75245548 -980.65942383 599.13964844 C-1000.23978246 623.5398364 -1015.47945844 648.66374014 -1028.375 677.1875 C-1033.70190135 688.92685931 -1039.77223298 700.00117346 -1046.375 711.0625 C-1047.61410795 713.15706324 -1048.8523489 715.25213956 -1050.08984375 717.34765625 C-1052.42587361 721.3000212 -1054.76831758 725.2484232 -1057.11807251 729.19264221 C-1060.36817666 734.65115047 -1063.58069405 740.12922994 -1066.75390625 745.6328125 C-1077.29367372 763.88951486 -1088.71677915 780.81323037 -1101.734375 797.39453125 C-1108.08938209 805.51004706 -1114.23897025 813.78087606 -1120.375 822.0625 C-1120.91447266 822.78840332 -1121.45394531 823.51430664 -1122.00976562 824.26220703 C-1129.08380393 833.80951589 -1135.76103886 843.59016784 -1142.3125 853.5 C-1150.87567678 866.44819599 -1159.90108476 878.96332447 -1169.375 891.26171875 C-1182.50926652 908.32256423 -1194.01462305 925.86885273 -1204.78027344 944.49365234 C-1211.62445207 956.28237286 -1218.89107621 967.38810444 -1227.375 978.0625 C-1228.5815625 979.58810547 -1228.5815625 979.58810547 -1229.8125 981.14453125 C-1234.08495014 986.44800669 -1238.56808209 991.52131676 -1243.14453125 996.5625 C-1246.58392746 1000.41751501 -1249.84955451 1004.39775446 -1253.0703125 1008.43652344 C-1253.9673623 1009.55447846 -1254.87142623 1010.66682999 -1255.78125 1011.77441406 C-1264.37591964 1022.2435722 -1271.97757384 1033.27348075 -1279.4375 1044.5625 C-1279.91576233 1045.2862381 -1280.39402466 1046.0099762 -1280.88677979 1046.75564575 C-1281.36258484 1047.47573822 -1281.83838989 1048.19583069 -1282.32861328 1048.93774414 C-1292.92096884 1064.96428567 -1304.03234263 1080.33215991 -1316.375 1095.0625 C-1316.90013184 1095.6920459 -1317.42526367 1096.3215918 -1317.96630859 1096.97021484 C-1324.13009675 1104.34041802 -1330.44601231 1111.39280915 -1337.375 1118.0625 C-1338.2 1118.8875 -1339.025 1119.7125 -1339.875 1120.5625 C-1340.7 1121.3875 -1341.525 1122.2125 -1342.375 1123.0625 C-1342.97183594 1123.69414063 -1343.56867188 1124.32578125 -1344.18359375 1124.9765625 C-1362.87785354 1144.39115157 -1386.49171146 1157.17656543 -1410.375 1169.0625 C-1411.31811035 1169.53993652 -1412.2612207 1170.01737305 -1413.23291016 1170.50927734 C-1443.31860079 1185.72598053 -1480.17108167 1199.70797766 -1514.33203125 1191.09765625 C-1528.49425928 1186.27995352 -1537.50978948 1175.71196074 -1544.51953125 1162.984375 C-1548.64555209 1153.71495832 -1545.5219882 1142.60350113 -1542.125 1133.625 C-1529.49951457 1102.94362395 -1512.64281195 1075.08545195 -1494.14624023 1047.66775513 C-1490.79996937 1042.70478699 -1487.49317126 1037.71862093 -1484.25 1032.6875 C-1483.83911133 1032.05078369 -1483.42822266 1031.41406738 -1483.00488281 1030.75805664 C-1480.82683335 1027.36681081 -1478.68141079 1023.9563796 -1476.55078125 1020.53515625 C-1466.70973804 1004.7551334 -1456.5137279 989.18835062 -1444.375 975.0625 C-1443.06599528 973.50681354 -1441.75700811 971.95111222 -1440.44848633 970.39501953 C-1437.1437276 966.47261962 -1433.81684993 962.56959609 -1430.46484375 958.6875 C-1412.37940135 937.7389032 -1397.76952191 916.77608614 -1384.796875 892.32421875 C-1375.34358107 874.51431447 -1365.95879851 856.90273435 -1353.375 841.0625 C-1352.37533203 839.79212891 -1352.37533203 839.79212891 -1351.35546875 838.49609375 C-1349.37849468 836.00440454 -1347.38087284 833.53096754 -1345.375 831.0625 C-1344.68921875 830.21300781 -1344.0034375 829.36351562 -1343.296875 828.48828125 C-1339.6045055 823.9392289 -1335.85873015 819.4457286 -1332.02587891 815.01489258 C-1325.56806607 807.54552794 -1319.28107234 799.97830806 -1313.375 792.0625 C-1312.95508789 791.50046875 -1312.53517578 790.9384375 -1312.10253906 790.359375 C-1300.28733214 774.27372249 -1292.91601227 755.85092912 -1285.93139648 737.28637695 C-1274.25425232 706.45138189 -1253.08145474 682.2481633 -1231.95898438 657.39648438 C-1226.42939767 650.88793903 -1220.93805451 644.35473719 -1215.546875 637.73046875 C-1214.10405239 635.95808054 -1212.65615966 634.18980714 -1211.203125 632.42578125 C-1197.38407032 615.64200031 -1184.3842826 598.29294687 -1171.91870117 580.48168945 C-1168.11733545 575.06655423 -1164.19671421 569.7472958 -1160.25 564.4375 C-1152.15333022 553.49682686 -1144.62094269 542.37858625 -1137.75 530.625 C-1137.33081299 529.91085937 -1136.91162598 529.19671875 -1136.47973633 528.4609375 C-1132.93005328 522.2863878 -1129.76749963 515.92694795 -1126.60595703 509.54858398 C-1124.66111548 505.62695153 -1122.68605507 501.72129039 -1120.70318604 497.81877136 C-1104.43031601 465.7902548 -1090.52031582 433.48059996 -1078.11328125 399.77783203 C-1076.5774925 395.60630056 -1075.02546162 391.44111129 -1073.46875 387.27734375 C-1069.47554249 376.54763647 -1065.59584229 365.80126668 -1061.97265625 354.94140625 C-1052.18588807 325.62190929 -1040.44802523 299.192079 -1024.40740967 272.76483154 C-1022.80895977 270.12916107 -1021.21996928 267.48779054 -1019.62890625 264.84765625 C-1016.23684207 259.23658949 -1012.81309352 253.64545921 -1009.375 248.0625 C-1008.83955566 247.19254395 -1008.30411133 246.32258789 -1007.75244141 245.42626953 C-1003.9753049 239.29544821 -1000.17874539 233.17683942 -996.375 227.0625 C-995.49956543 225.65363525 -995.49956543 225.65363525 -994.60644531 224.21630859 C-985.65936304 209.82453493 -976.58371045 195.51945684 -967.42626953 181.26074219 C-965.30961449 177.96055401 -963.19879858 174.65667309 -961.08984375 171.3515625 C-960.38400146 170.24611084 -959.67815918 169.14065918 -958.95092773 168.00170898 C-957.61759764 165.91319629 -956.28501391 163.82420681 -954.95336914 161.73461914 C-897.55601667 71.90478604 -897.55601667 71.90478604 -852.27319336 60.90356445 C-838.30501497 57.88982521 -824.17371946 56.38304724 -809.9375 55.375 C-809.07802765 55.31279266 -808.2185553 55.25058533 -807.33303833 55.18649292 C-749.32828482 51.04592708 -749.32828482 51.04592708 -726.0625 71 C-723.8086145 72.99468866 -721.58864023 75.0233912 -719.375 77.0625 C-718.28445313 78.02929688 -718.28445313 78.02929688 -717.171875 79.015625 C-706.04140475 89.39782834 -697.6507451 102.93924451 -689.34375 115.578125 C-681.26318925 127.84821131 -672.60478691 139.6361669 -663.375 151.0625 C-662.62734375 151.99320313 -661.8796875 152.92390625 -661.109375 153.8828125 C-657.97558575 157.74932225 -654.80853843 161.57899232 -651.53515625 165.328125 C-636.57577052 182.46655734 -621.89769778 200.06818202 -622.0625 224 C-622.06451416 224.81267334 -622.06652832 225.62534668 -622.06860352 226.46264648 C-622.1986346 234.53002385 -623.5373601 242.26962741 -625.03320312 250.17675781 C-628.36876273 268.57951668 -625.03925627 286.3084164 -620.60549927 304.17672729 C-619.56968074 308.36495075 -618.56730857 312.56112893 -617.56640625 316.7578125 C-617.27397285 317.98385445 -617.27397285 317.98385445 -616.97563171 319.23466492 C-607.72287448 358.25517739 -608.22831596 392.4779357 -619.03125 430.9921875 C-625.0413214 452.42192787 -626.30143006 471.09655371 -622.875 493.0625 C-618.14428191 523.38989542 -624.32571919 545.08688418 -635.4453125 573.3203125 C-642.79620092 592.20132372 -644.91068339 610.65712495 -646.17041016 630.79833984 C-647.49582031 651.94480011 -651.24219739 671.85874591 -656.5 692.375 C-665.17550442 726.12143625 -665.17550442 726.12143625 -658.375 759.0625 C-651.42942006 770.27185244 -642.79271473 779.80850187 -630.0625 784.20703125 C-607.98910312 789.32787226 -584.28565658 778.78635599 -565.375 768.0625 C-547.68622147 756.98412934 -531.60897009 742.20326328 -518.64453125 725.8984375 C-516.15872157 722.79224503 -513.58721524 719.77151561 -511 716.75 C-507.21637807 712.31459702 -503.56978797 707.79634779 -500 703.1875 C-496.16309494 698.24267403 -492.18505333 693.45910051 -488.0625 688.75 C-470.65006175 668.8275443 -453.81172912 648.52278915 -441.375 625.0625 C-440.84052246 624.0631543 -440.30604492 623.06380859 -439.75537109 622.03417969 C-426.30535975 596.66823301 -416.09359493 570.52462482 -408.00805664 542.99951172 C-402.90633077 525.70796854 -396.29613328 509.58400689 -385.375 495.0625 C-384.94541992 494.48918945 -384.51583984 493.91587891 -384.07324219 493.32519531 C-379.3752625 487.09304707 -374.65560608 480.99894783 -368.97265625 475.625 C-367.21075449 473.90186869 -365.64935449 472.07258004 -364.0625 470.1875 C-360.6678931 466.25610671 -356.9379244 462.84350908 -353.04296875 459.4140625 C-350.30505103 457.00084659 -347.62126192 454.53569572 -344.9375 452.0625 C-341.51235346 448.93270685 -338.03137893 445.978897 -334.375 443.125 C-328.80492547 438.61742524 -323.71720025 433.66204125 -318.625 428.625 C-317.820625 427.83810791 -317.01625 427.05121582 -316.1875 426.24047852 C-301.65097391 411.69041469 -295.53665667 395.53634694 -290.375 376.0625 C-284.65110823 354.51003912 -275.75380204 335.59328821 -264.3125 316.4375 C-244.79616986 283.6296109 -230.77146333 246.91344879 -222.1875 209.6875 C-222.01557129 208.94330811 -221.84364258 208.19911621 -221.66650391 207.43237305 C-218.2746733 191.14906298 -218.1591847 174.92033511 -218.49145508 158.37597656 C-218.79910171 141.73577919 -217.36765029 126.19315611 -211.875 110.375 C-211.53533203 109.37952148 -211.19566406 108.38404297 -210.84570312 107.35839844 C-194.82321284 61.96134264 -165.39825127 33.39577695 -122.75 12.8125 C-36.10440673 -28.2949896 -36.10440673 -28.2949896 0 0 Z " fill="#FFFFFF" transform="translate(2152.375,484.9375)"/>
<path d="M0 0 C0.80840332 0.18191895 1.61680664 0.36383789 2.44970703 0.55126953 C24.86910438 5.72711142 43.46433073 16.18470727 56 36 C72.41652515 63.7688266 71.5609162 116.14494037 64 147 C58.25231054 169.21694076 46.68776214 185.92011819 31.265625 202.5546875 C29.30342729 204.67250779 27.39028122 206.81822682 25.5 209 C22.76216181 212.15558345 19.95251254 215.23703636 17.125 218.3125 C12.20433277 223.71558559 7.56607028 229.29622994 3 235 C2.13861488 236.04606237 1.27661421 237.09161811 0.4140625 238.13671875 C-7.27609418 247.55837859 -13.65042208 257.64427362 -20 268 C-36.28411911 294.54094293 -36.28411911 294.54094293 -45 305 C-45.42700195 305.51498047 -45.85400391 306.02996094 -46.29394531 306.56054688 C-50.46969851 311.58607041 -54.72960593 316.53768994 -59.01171875 321.47265625 C-65.62665641 329.10869878 -72.06274045 336.82109677 -78 345 C-78.74894531 346.02867187 -79.49789062 347.05734375 -80.26953125 348.1171875 C-88.61646142 360.3086757 -93.86518181 374.05941805 -99.28125 387.73828125 C-106.36097201 405.58446525 -115.07423561 421.04888769 -126.21875 436.66796875 C-140.37808529 456.53779067 -152.88917573 477.01160961 -164.0625 498.6875 C-175.34665466 520.54577055 -189.20010293 540.42956996 -204.01171875 560.02734375 C-219.25785022 580.23663104 -233.15434921 601.1927253 -246 623 C-260.98446101 648.43745098 -276.99662734 672.87109136 -295.04296875 696.24609375 C-315.39630253 722.63013375 -328.50975556 746.26630174 -335.375 779.04248047 C-340.72654731 804.36616958 -340.72654731 804.36616958 -346 815 C-346.55171875 816.15242188 -347.1034375 817.30484375 -347.671875 818.4921875 C-357.53888251 838.43586005 -372.92989972 854.08710255 -388.59082031 869.57226562 C-391.98117732 872.93539925 -395.17113767 876.4002243 -398.26171875 880.04296875 C-400.41260639 882.46452989 -402.69611515 884.72374795 -405 887 C-409.21701198 891.17907784 -413.14660547 895.48834806 -417 900 C-418.0002566 901.1493482 -419.00166765 902.2976922 -420.00390625 903.4453125 C-424.89670303 909.05549859 -429.76205304 914.65518653 -434.375 920.5 C-450.20314619 939.94518142 -469.06372023 953.50226665 -490.92724609 965.2902832 C-506.63000314 973.75825502 -521.43501693 983.26128847 -536.25 993.1875 C-545.02250257 999.0635838 -553.80850024 1004.80109714 -563 1010 C-563.62793457 1010.36109863 -564.25586914 1010.72219727 -564.90283203 1011.09423828 C-604.80602232 1033.88056711 -651.57152105 1040.83586649 -696.05957031 1049.60913086 C-705.61872345 1051.49811964 -715.16309264 1053.43837822 -724.6875 1055.49609375 C-726.11413719 1055.80427536 -726.11413719 1055.80427536 -727.56959534 1056.11868286 C-732.08994485 1057.0977122 -736.60834145 1058.0850136 -741.12475586 1059.08203125 C-784.33163732 1068.55739905 -824.98691481 1061.38350896 -862.82421875 1037.75390625 C-875.9708014 1029.23291502 -888.21512621 1019.41135148 -900.26757812 1009.42822266 C-902.74310877 1007.3873751 -905.24998215 1005.38572864 -907.75 1003.375 C-933.50489803 982.22195312 -946.49604165 961.35252406 -953.67480469 928.95458984 C-958.72336204 906.35713319 -966.38502321 886.07066393 -976.13256836 865.13973999 C-994.07844734 826.54112807 -994.81931066 797.7624525 -983.34375 757.12890625 C-982.9430127 755.69538818 -982.9430127 755.69538818 -982.53417969 754.23291016 C-982.03333123 752.44750702 -981.52436774 750.66434727 -981.00488281 748.88427734 C-976.35953848 732.39490679 -976.64013749 715.86480558 -976.54370117 698.87573242 C-976.39821466 677.31974791 -972.93610597 659.03689102 -967.13226318 638.32281494 C-961.3693031 617.67273542 -956.20085193 597.21354562 -953 576 C-952.80760742 574.74719238 -952.61521484 573.49438477 -952.41699219 572.20361328 C-949.33781502 551.76977961 -947.43280452 531.30524746 -946.68359375 510.65625 C-945.93063893 491.0139796 -943.88887962 471.86888728 -941.01763916 452.42016602 C-938.47087747 435.04379273 -936.99927168 417.87260773 -936.45956421 400.32418823 C-935.89215723 382.464061 -933.33028737 365.27830722 -929.91778564 347.74578857 C-929.23445657 344.2325865 -928.56202241 340.71743984 -927.89208984 337.20166016 C-926.14551061 328.05102691 -924.38451755 318.9034079 -922.56718445 309.76654053 C-918.15501217 287.57239596 -915.50527007 265.37868902 -913.30078125 242.87890625 C-910.28376304 212.8050585 -905.46428447 181.32910829 -892 154 C-891.52949219 153.03191406 -891.05898438 152.06382812 -890.57421875 151.06640625 C-884.42550454 139.13270459 -876.11944179 128.77576525 -867 119 C-865.93318883 117.75367734 -864.87053997 116.50377736 -863.8125 115.25 C-849.14303227 98.51869465 -831.00923107 79.71560444 -808.0625 76.4375 C-800.17183229 76.78819634 -792.43680185 82.75103655 -786.8515625 87.95703125 C-777.3806878 98.40696262 -775.94105852 108.49643438 -775.125 122.0625 C-773.7140068 141.92248357 -768.24593902 157.83563312 -758.1875 175.0625 C-752.26510964 185.43807085 -747.14378456 195.79749278 -743 207 C-742.75459473 207.64066406 -742.50918945 208.28132812 -742.25634766 208.94140625 C-726.4604658 250.83055455 -736.21848531 291.74360502 -749.48461914 332.55957031 C-756.40894848 354.03173314 -758.11354796 373.67798126 -755.28881836 395.9932251 C-749.73503008 440.59136556 -759.2774358 479.61798401 -772.09796143 522.07015991 C-781.60024081 553.55219284 -785.35189044 578.46910904 -778.36816406 610.9375 C-775.40497101 624.79279537 -773.47665666 638.42724291 -772.47052002 652.54217529 C-771.35980105 667.81976826 -768.97604146 682.82028914 -766.33642578 697.90185547 C-762.06914554 722.61172228 -766.0085802 742.28609493 -774 765.6875 C-786.60919124 802.72241157 -786.60919124 802.72241157 -779.3125 840.25 C-776.17959075 846.06715495 -772.38818277 851.07687685 -768 856 C-767.39542969 856.68707031 -766.79085937 857.37414063 -766.16796875 858.08203125 C-752.38565402 872.79283876 -733.624911 881.61945184 -713.66015625 883.27734375 C-683.81988511 884.18159439 -656.90550602 864.50792345 -636 845 C-632.35827509 841.51648812 -628.76409307 837.98777847 -625.1875 834.4375 C-624.31601318 833.57535889 -623.44452637 832.71321777 -622.54663086 831.82495117 C-616.6106963 825.85965037 -611.21335486 819.60290041 -606 813 C-605.47559326 812.3392749 -604.95118652 811.6785498 -604.41088867 810.99780273 C-603.10014527 809.33728035 -601.79868841 807.66995873 -600.5 806 C-593.61884839 797.20969689 -586.62484744 788.57739272 -579.10546875 780.3203125 C-577.27082315 778.29845816 -575.47231214 776.25321478 -573.6875 774.1875 C-566.17535651 765.57983558 -558.35733171 757.29413295 -550.234375 749.26171875 C-547.61804229 746.61336798 -545.17049732 743.86084569 -542.7578125 741.02734375 C-541.53439081 739.61633073 -540.27602613 738.23517936 -538.9921875 736.87890625 C-522.0490305 718.87300643 -510.56459634 697.56355814 -502.7265625 674.27734375 C-494.49877176 649.84012951 -485.81298867 629.0758498 -468 610 C-466.95398993 608.77452741 -465.9121705 607.54546289 -464.875 606.3125 C-457.85792783 598.2601221 -450.15635614 590.40153212 -442 583.5 C-431.6791946 574.73747813 -422.19295678 564.76742344 -414 554 C-413.32710937 553.13246094 -412.65421875 552.26492188 -411.9609375 551.37109375 C-400.05087201 535.57531191 -392.7587742 518.44366272 -387.30413818 499.58554077 C-383.44666329 486.31977233 -379.56639934 473.22134325 -373 461 C-372.66323242 460.37013184 -372.32646484 459.74026367 -371.97949219 459.09130859 C-366.30487873 448.69488888 -359.28311503 439.3126204 -352 430 C-350.96746094 428.67935547 -350.96746094 428.67935547 -349.9140625 427.33203125 C-346.99536433 423.65594938 -344.02150724 420.02603625 -341.04296875 416.3984375 C-329.39851079 402.19205841 -318.28046746 387.88558948 -309 372 C-308.43418213 371.0411792 -308.43418213 371.0411792 -307.85693359 370.06298828 C-300.87226662 358.07067537 -296.10533668 345.34121032 -291.26171875 332.36962891 C-278.99290299 299.60372427 -262.62596696 272.14320619 -242 244 C-224.09875459 219.55242839 -211.80978915 196.8782174 -202.00097656 168.06542969 C-196.38589184 151.58501352 -189.01786186 136.67937602 -180.32983398 121.61352539 C-174.58861339 111.61945791 -170.41939097 101.39335865 -166.84375 90.44140625 C-166.26367188 88.66890503 -166.26367188 88.66890503 -165.671875 86.8605957 C-164.90984248 84.51274176 -164.15919903 82.16115016 -163.421875 79.80541992 C-160.1822932 69.73234526 -156.12079686 60.63661028 -148.8125 52.875 C-147.97332031 51.96492188 -147.13414062 51.05484375 -146.26953125 50.1171875 C-145.1926219 49.06472538 -144.10084757 48.02739715 -143 47 C-142.27192139 46.319375 -141.54384277 45.63875 -140.79370117 44.9375 C-133.52248112 38.56182511 -125.7213988 34.49925293 -117.0401001 30.37026978 C-113.02172269 28.45678403 -109.02773374 26.49397761 -105.03515625 24.52734375 C-104.24989563 24.14104294 -103.46463501 23.75474213 -102.65557861 23.35673523 C-96.13238253 20.12153247 -89.84956122 16.59506615 -83.625 12.8125 C-82.76132812 12.28769043 -81.89765625 11.76288086 -81.0078125 11.22216797 C-80.18925781 10.72475098 -79.37070312 10.22733398 -78.52734375 9.71484375 C-52.98713184 -5.78309202 -28.78964114 -6.65469958 0 0 Z " fill="#FFFFFF" transform="translate(1071,401)"/>
<path d="M0 0 C1.00417969 0.82113281 2.00835938 1.64226562 3.04296875 2.48828125 C3.57325684 2.91705566 4.10354492 3.34583008 4.64990234 3.78759766 C18.69401656 15.2043975 32.17427506 27.97586841 43.04296875 42.48828125 C43.44032227 43.00922363 43.83767578 43.53016602 44.24707031 44.06689453 C59.53232147 64.19110663 70.27545612 86.68895416 66.75878906 112.58056641 C64.40335746 125.04288346 58.50811313 136.5879521 52.875 147.8359375 C44.96172906 163.71996077 37.51623022 179.4029324 37.04296875 197.48828125 C37.00429687 198.14699219 36.965625 198.80570313 36.92578125 199.484375 C36.38313271 215.43221271 40.35165091 231.89217236 43.23046875 247.48828125 C43.43060577 248.57499115 43.6307428 249.66170105 43.83694458 250.78134155 C48.0024581 273.25442661 53.76713994 294.23949924 61.6105957 315.72216797 C71.46044581 342.9700285 67.09358769 363.50939982 56.47973633 389.46386719 C49.21604913 407.25441829 45.31953822 424.36522463 43.2890625 443.4609375 C41.36722111 461.33954699 38.75936759 479.02180255 35.66796875 496.73828125 C35.48514343 497.805625 35.30231812 498.87296875 35.11395264 499.97265625 C31.76447522 519.42785266 26.84548547 538.19082221 20.85546875 556.98828125 C12.23829948 584.81693259 13.93243971 606.51224639 19.87286377 634.64549255 C26.45640161 666.31139868 13.48242533 690.11221308 -2.6015625 716.48461914 C-13.45716598 734.31916735 -20.71346311 750.8888716 -21.3515625 772.12890625 C-21.42045264 774.02476777 -21.49014122 775.92060041 -21.56054688 777.81640625 C-21.66673752 780.75766852 -21.76835711 783.69873961 -21.85571289 786.640625 C-22.40741223 804.76218088 -24.97609861 821.2974178 -31.26953125 838.36328125 C-32.06743765 840.59728814 -32.86429972 842.83166828 -33.66015625 845.06640625 C-34.05009766 846.15115234 -34.44003906 847.23589844 -34.84179688 848.35351562 C-36.46600549 852.91893565 -37.99862391 857.51262478 -39.51953125 862.11328125 C-39.79990234 862.9522998 -40.08027344 863.79131836 -40.36914062 864.65576172 C-41.89168735 869.22078881 -43.37329115 873.79593955 -44.81640625 878.38671875 C-50.4330752 896.06241425 -56.77001335 914.17033095 -68.95703125 928.48828125 C-70.01857422 929.73738281 -70.01857422 929.73738281 -71.1015625 931.01171875 C-73.33651601 933.55588649 -75.62975601 936.02846437 -77.95703125 938.48828125 C-78.71628906 939.31199219 -79.47554687 940.13570312 -80.2578125 940.984375 C-95.74869389 957.23585613 -113.86411272 966.52031834 -136.51953125 967.11328125 C-153.18364 967.17317023 -169.75142905 962.99680365 -185.95703125 959.48828125 C-187.0337207 959.25947266 -188.11041016 959.03066406 -189.21972656 958.79492188 C-204.94534893 955.37654881 -218.9619233 949.46391348 -230.95703125 938.48828125 C-231.63894531 937.89789062 -232.32085938 937.3075 -233.0234375 936.69921875 C-254.74657838 916.71903046 -255.45302382 887.00705963 -256.95703125 859.48828125 C-257.02132324 858.34987793 -257.02132324 858.34987793 -257.08691406 857.18847656 C-258.42634533 830.27808483 -246.43630232 808.9356785 -231.83203125 787.36328125 C-207.86532078 751.81215413 -202.45773363 708.14019269 -203.05297852 665.99511719 C-203.25992036 650.25450127 -202.26138822 634.97784649 -198.33203125 619.67578125 C-198.07478271 618.64300049 -197.81753418 617.61021973 -197.55249023 616.54614258 C-196.70610497 613.18837236 -195.83565172 609.83775509 -194.95703125 606.48828125 C-194.64427246 605.29074219 -194.33151367 604.09320312 -194.00927734 602.859375 C-189.39315453 585.32594397 -184.0711609 568.28879128 -177.625 551.3515625 C-177.224021 550.29428955 -176.82304199 549.2370166 -176.40991211 548.14770508 C-175.6358703 546.11464743 -174.85469451 544.08428411 -174.06469727 542.05737305 C-170.25087487 532.10289586 -167.40233268 522.46350498 -167.58203125 511.73828125 C-167.58783203 510.8563208 -167.59363281 509.97436035 -167.59960938 509.06567383 C-167.73246774 502.0309462 -168.51297666 495.14251882 -169.45703125 488.17578125 C-172.00981988 469.27288242 -169.96260332 453.32316128 -165.6484375 434.88671875 C-165.42953857 433.94393066 -165.21063965 433.00114258 -164.98510742 432.02978516 C-164.56899718 430.25116666 -164.14428795 428.4745224 -163.70825195 426.70068359 C-160.69251782 413.99038413 -159.72757566 401.28173771 -159.55194092 388.26538086 C-159.18530702 364.62681565 -154.81121944 343.5495784 -147.53125 321.03125 C-138.53185117 292.94768176 -137.90330271 262.52133384 -137.60656738 233.23580933 C-137.59057599 231.77098611 -137.56865031 230.30621194 -137.53991699 228.84158325 C-137.12110203 205.16091475 -145.88896358 185.48304284 -157.24975586 165.12475586 C-168.39165921 145.12771536 -174.98645852 125.57605483 -169.39453125 102.67578125 C-160.97192718 75.64098917 -144.67927684 51.45602982 -125.95703125 30.48828125 C-125.21195313 29.63363281 -124.466875 28.77898438 -123.69921875 27.8984375 C-121.48895178 25.39109164 -119.23750361 22.93191552 -116.95703125 20.48828125 C-116.08949219 19.555 -115.22195312 18.62171875 -114.328125 17.66015625 C-82.23229244 -16.07276423 -39.70899971 -31.21116886 0 0 Z " fill="#FFFFFF" transform="translate(2436.95703125,498.51171875)"/>
<path d="M0 0 C21.78295482 15.68798112 21.78295482 15.68798112 47.82421875 18.19140625 C60.38332184 15.53927958 71.73010506 9.21953025 82.62890625 2.6484375 C107.6751752 -12.39148085 132.23037583 -18.58320712 161.30859375 -18.86328125 C162.905536 -18.88462988 164.50247004 -18.90660106 166.09939575 -18.92915344 C169.42217977 -18.97414369 172.74495782 -19.01302639 176.06787109 -19.04711914 C180.27531024 -19.09058484 184.48243593 -19.14741731 188.68964958 -19.2086668 C191.98091438 -19.25540849 195.27223407 -19.2959401 198.56360245 -19.33463478 C200.11258098 -19.35335754 201.6615415 -19.37365461 203.21047592 -19.39572716 C217.236152 -19.58823663 231.54140234 -19.66132094 245.31640625 -16.7265625 C246.15163818 -16.55141113 246.98687012 -16.37625977 247.84741211 -16.19580078 C274.47835239 -10.30487544 298.68885138 5.08931939 319.25390625 22.5859375 C320.40754602 23.55469473 321.56119238 24.52344409 322.71484375 25.4921875 C347.53177991 46.43883224 369.83534049 73.39191872 374.25390625 106.5859375 C376.1572288 129.63728841 367.81524512 150.21959187 354.25390625 168.5859375 C353.86396484 169.11719238 353.47402344 169.64844727 353.07226562 170.19580078 C334.7260483 194.97764001 307.55745883 224.87714783 275.48144531 230.30029297 C259.51691802 232.34747589 244.53019671 230.27162717 229.25390625 225.5859375 C228.32046387 225.30186035 227.38702148 225.0177832 226.42529297 224.72509766 C197.79329813 215.81232045 173.8344834 201.27058669 151.8828125 180.98046875 C147.49397932 176.98291342 142.92276692 173.25041485 138.25390625 169.5859375 C137.69719238 169.14604492 137.14047852 168.70615234 136.56689453 168.25292969 C119.08601319 154.55053053 101.0093484 145.33166005 78.25390625 147.5859375 C63.83962816 150.06708373 53.50548072 157.53087883 43.25390625 167.5859375 C42.48820312 168.31554687 41.7225 169.04515625 40.93359375 169.796875 C34.03929777 176.8276917 29.01161994 184.88847044 23.72973633 193.15673828 C19.3038705 200.06296008 14.79643708 206.51663722 9.25390625 212.5859375 C8.7125 213.20726562 8.17109375 213.82859375 7.61328125 214.46875 C-6.24142765 229.46680867 -23.97150474 234.56336203 -43.7578125 235.76953125 C-81.77261253 236.67085845 -115.03015158 222.60471834 -145.57275391 201.10498047 C-159.96266767 191.04723575 -172.66046368 183.01814294 -190.74609375 184.5859375 C-206.9268442 188.32142288 -219.09928539 200.50726613 -230.74609375 211.5859375 C-233.37510567 213.96456733 -236.05578518 216.27712757 -238.74609375 218.5859375 C-239.66261719 219.39289063 -240.57914063 220.19984375 -241.5234375 221.03125 C-267.52271876 243.72145699 -300.67080788 265.19055199 -336.50732422 262.78710938 C-356.88172113 260.95630206 -375.61776103 249.18748566 -392.93676758 239.09008789 C-406.8278099 230.99674807 -421.14912033 223.75849725 -435.68359375 216.8984375 C-453.99277234 208.23392917 -469.91134 198.58837833 -484.74609375 184.5859375 C-485.50664063 183.88984375 -486.2671875 183.19375 -487.05078125 182.4765625 C-500.01171578 170.18834083 -510.31627145 153.28451831 -511.1796875 135.078125 C-511.20291971 133.20587285 -511.20369131 131.33322592 -511.18359375 129.4609375 C-511.17674561 128.46537842 -511.16989746 127.46981934 -511.1628418 126.4440918 C-510.64485609 102.27336573 -499.74736423 79.40913482 -483.74609375 61.5859375 C-482.90304687 60.62300781 -482.06 59.66007812 -481.19140625 58.66796875 C-460.87176827 35.72499955 -435.35308389 15.96561436 -403.74609375 13.5859375 C-368.51995974 12.35221881 -336.11812343 15.94401991 -302.61328125 26.78881836 C-301.86823837 27.02977234 -301.1231955 27.27072632 -300.35557556 27.51898193 C-298.94880278 27.97556651 -297.54294821 28.43499365 -296.13819885 28.89776611 C-276.50018185 35.29479769 -259.08662452 30.62800738 -241.27880859 21.58154297 C-236.60684282 19.15552695 -232.01399891 16.62142426 -227.46289062 13.9765625 C-212.16383211 5.10402013 -196.5865774 1.12190935 -179.36328125 -2.62548828 C-173.13021318 -3.98434424 -166.90733743 -5.3882376 -160.68359375 -6.7890625 C-159.38030493 -7.07982081 -158.07700079 -7.37051047 -156.77368164 -7.66113281 C-149.97860919 -9.18344833 -143.20951036 -10.77875433 -136.4609375 -12.49609375 C-87.57156481 -24.89323725 -42.91909189 -30.91392899 0 0 Z " fill="#FFFFFF" transform="translate(2205.74609375,89.4140625)"/>
<path d="M0 0 C13.27248291 9.12078069 25.18946247 16.14867007 41.88354492 14.01977539 C54.07863424 11.04898628 65.50647379 3.53634956 76.13745117 -2.97241211 C94.38408201 -14.14381874 113.33384736 -18.54694094 134.40771484 -13.625 C143.21463128 -11.38404239 151.59750677 -8.24038556 160.07104492 -4.98022461 C175.41853739 0.89417158 190.77390646 3.84430334 206.92724609 6.52490234 C230.26304563 10.43122538 248.38601044 17.74754187 265.88354492 34.01977539 C267.1906543 35.20506836 267.1906543 35.20506836 268.52416992 36.41430664 C284.16169645 51.24045208 295.11489914 70.34475499 300.88354492 91.01977539 C301.25092773 92.25147461 301.25092773 92.25147461 301.62573242 93.50805664 C306.02735479 110.96380562 302.71869405 129.48876433 293.86401367 144.89477539 C288.08231771 154.01776705 281.27774126 162.17096301 273.88354492 170.01977539 C272.98442383 171.01557617 272.98442383 171.01557617 272.06713867 172.03149414 C254.69912776 190.52486214 231.67254198 200.33438622 206.44604492 201.20727539 C179.33580579 201.7585055 154.73963931 195.84419822 129.16162109 187.49829102 C104.19108701 179.40449545 81.4188519 180.32721014 57.78295898 192.06274414 C42.89289467 199.6918108 29.32256487 209.27896166 15.86035156 219.15673828 C-17.50547574 243.5770937 -60.71691535 254.3477472 -102.00146484 248.14404297 C-129.76561146 243.37193435 -152.75075601 226.83718947 -170.11645508 205.01977539 C-170.87055664 204.09165039 -171.6246582 203.16352539 -172.40161133 202.20727539 C-189.1822437 181.21504622 -201.76442708 159.64861537 -199.11645508 132.01977539 C-198.06030151 125.52329119 -196.13965562 119.27099765 -194.11645508 113.01977539 C-193.77155029 111.95218994 -193.77155029 111.95218994 -193.41967773 110.86303711 C-193.19199707 110.16065918 -192.96431641 109.45828125 -192.72973633 108.73461914 C-192.49738281 108.01653076 -192.2650293 107.29844238 -192.02563477 106.55859375 C-191.53963591 105.05933004 -191.04931351 103.56146175 -190.55493164 102.06494141 C-188.87836168 96.85169234 -187.49357685 91.59858887 -186.23754883 86.26977539 C-181.76493832 67.31756664 -177.49647571 50.89774899 -164.11645508 36.01977539 C-163.40618164 35.20250977 -162.6959082 34.38524414 -161.96411133 33.54321289 C-152.8603772 23.20751475 -143.29353907 14.07277739 -132.11645508 6.01977539 C-131.39748047 5.49947754 -130.67850586 4.97917969 -129.93774414 4.44311523 C-87.9842348 -25.6893863 -43.28899854 -29.87985433 0 0 Z " fill="#FFFFFF" transform="translate(1311.116455078125,108.980224609375)"/>
</svg>
